<svg version="1.2" xmlns="http://www.w3.org/2000/svg" viewBox="0 0 537 537" width="537" height="537">
	<title>favicon</title>
	<style>
		.s0 { fill: #0c374a } 

		@media (prefers-color-scheme: dark) {
			.s0 {
				fill: white;
			}
		}
	</style>
	<g id="Layer">
		<path id="Layer" fill-rule="evenodd" class="s0" d="m274.9 10.9c1 0.6 1.5 3.8 1.8 10.7 0.2 5.5 0.6 10.4 0.8 11.1 0.3 0.8 3.8 1.3 11.2 1.5 10.4 0.3 10.7 0.4 11.3 2.7 0.3 1.4 0.3 4.5 0 7l-0.5 4.6-10.7 0.5c-5.8 0.3-10.9 0.7-11.1 1-0.3 0.3-0.7 6.8-0.8 14.5l-0.3 14 4.1 8c2.3 4.4 5.9 11.4 8.1 15.5 2.2 4.1 5.9 11.1 8.2 15.5 2.3 4.4 6.3 12 9 17 2.7 4.9 5.9 10.9 7.1 13.3 3.1 5.9 3.9 6.4 11.3 6.6 3.6 0 7.1 0.7 7.7 1.3 1.6 1.6 2.3 10.2 1 13.5-0.8 2.1-1.7 2.7-4.8 3l-3.8 0.3-0.3 32.7-0.2 32.8h4.9c4.2 0 5.3 0.4 7 2.6 2 2.6 2.1 3.9 2.1 29.8 0 20.3 0.3 27.6 1.3 28.7 1.4 1.8 10.7 7.9 16.2 10.9 1.1 0.6 3.2 1.8 4.7 2.8 1.5 0.9 8.2 5.1 14.8 9.2 6.7 4.1 13.2 8.2 14.5 9 1.3 0.8 6.7 4.2 12.1 7.5 5.3 3.3 10.8 6.8 12.3 7.7 1.4 1 3.5 2.2 4.6 2.8 1.1 0.6 3.2 1.8 4.6 2.8 1.5 0.9 4.5 2.8 6.8 4.1 4.3 2.6 5.4 4.7 5.3 9.4-0.1 4.9-2.7 6.7-9.3 6.7-9.7 0-8.9-2.9-8.9 32.5 0 17.3 0.4 31.6 0.9 31.9 1 0.6 11.6-10.9 15.7-17 5-7.4 8.9-12.9 9.5-13.4 0.3-0.3 0.9-1.2 1.2-2 0.4-0.8 1.7-3.1 2.9-5 2.7-4.4 11.8-22.6 11.8-23.5 0-0.4 0.6-2.1 1.4-3.8 1.8-4.1 7-20.4 8.9-28.2 2.9-11.5 4.2-22.1 4.2-34v-12l-27-0.5c-17.3-0.3-27.9-0.9-29.6-1.7-4.8-2.1-4.6-10.3 0.3-13.7 1.9-1.4 6.1-1.6 29.5-1.6h27.3v-3.2c0-8.8-8-40-13.5-52.3-5.3-11.9-18.2-35.6-20.5-37.5-0.3-0.3-1.3-1.6-2.2-3-6-9.6-21.9-27.2-32.5-36.1-4.9-4.1-9.4-7.9-10.1-8.6-1.3-1.2-20-13.8-23.7-15.9-2.3-1.3-21.5-10.9-26-12.9-4.7-2.1-20.6-7.2-24.7-7.9-2.2-0.4-4.2-1.5-4.8-2.6-0.5-1-1-7.1-1-13.4 0-13.9 0.4-14.4 9.6-12 24 6.1 41.7 13 60.4 23.5 5.5 3.1 19 11.8 20 12.9 0.3 0.3 2.8 2.1 5.5 4 7 4.8 9.4 6.9 22.5 20 14.8 14.7 20.4 21.1 27 31 0.8 1.2 2.9 4.1 4.5 6.4 3.6 4.9 5.1 7.4 6.5 10.1 0.6 1.1 1.9 3.3 2.9 5 1.9 3 7.9 14.8 10.8 21.5 0.9 1.9 2.2 4.7 3 6.2 0.7 1.4 1.3 3.5 1.3 4.5 0 1 0.4 2.3 0.9 2.8 1.2 1.4 8.1 24.7 8.1 27.4 0 0.9 0.6 4.5 1.4 8.1 4.7 21.4 4.7 58.6 0 80-0.8 3.6-1.4 7.4-1.4 8.5 0 1.1-0.6 4-1.4 6.5-0.8 2.5-2.2 7.2-3.1 10.5-1.6 5.7-2.2 7.5-6.1 17.7-3.6 9.6-11.5 25.6-16.4 33.3-1.1 1.6-2.3 3.7-2.7 4.5-1.6 3.4-10.7 16-16.9 23.5-10.8 13.1-23.1 25.1-37.1 36.3-14.5 11.7-39.7 26.2-57.3 33.2-3 1.2-6.6 2.6-8 3.2-4.1 1.6-13.2 4.5-19.5 6.1-15.6 4-18.7 4.7-21.2 4.7-1.6 0-6 0.7-9.8 1.5-5 1-13.5 1.5-29.2 1.5-22.2 0-25.8-0.4-46.3-4.6-9.7-2-26.8-6.9-32.5-9.3-1.1-0.5-4-1.7-6.5-2.6-4.8-1.9-15.8-6.8-20-9-7.1-3.6-14.7-7.9-16.1-9.1-0.8-0.8-1.8-1.4-2.2-1.4-0.8 0-9-5.5-16.2-10.9-14.6-10.9-30.3-25.9-40.4-38.6-3.1-3.9-5.8-7.2-6.1-7.5-1-1-11.3-16-14.7-21.6-0.7-1-4.2-8-7.9-15.4-3.6-7.4-7.3-14.7-8-16.2-0.8-1.4-1.4-3.5-1.4-4.5 0-1-0.4-2.3-0.9-2.8-1.4-1.7-7-21.3-9.5-33.5-3.1-15.3-4.1-26-4.1-44.5 0-24.7 3.2-46 9.7-65 0.5-1.7 1.4-4.4 1.8-6 1-3.6 3.7-10.9 4.9-13.3 0.4-0.9 1.5-3.3 2.3-5.2 4.1-9.4 9.3-19 16.6-30.7 16.8-26.9 40.2-51.2 66.7-69.1 3.9-2.7 7.7-5.1 8.5-5.5 0.8-0.4 3.8-2.1 6.5-3.7 2.8-1.7 8.8-4.9 13.5-7.1 14.1-6.6 13.4-6.3 26.8-11.3 4.1-1.5 11.5-3.7 20.6-6 9.3-2.4 9.6-2 9.6 12.8 0 13.9-0.2 14.4-7.3 15.7-4.4 0.7-6 1.2-19.2 6.2-7.8 2.9-18.3 7.8-27.5 12.8-5.4 3-22.1 13.9-23.5 15.5-0.5 0.6-3 2.6-5.5 4.4-6.9 5.2-22.6 20.7-28.8 28.5-3.1 3.8-5.9 7.2-6.3 7.5-4.4 3.3-27.9 44.8-27.9 49.2 0 0.8-0.6 2.2-1.4 3.3-0.7 1.1-1.6 3.1-1.9 4.5-0.3 1.4-1 3.8-1.5 5.5-3.8 11.1-7.2 27.2-7.2 33.7v5.8h26.6c23.5 0 26.9 0.2 29.5 1.7 5 3 5.3 9.2 0.6 12.7-2.7 2-4.4 2.1-30 2.6l-27.2 0.5 0.3 13.5c0.2 12.3 1.1 18.7 4.4 32 0.6 2.5 1.4 6.1 1.8 8 0.8 3.3 1.4 5.2 4.5 14 3.6 9.8 11.4 26.8 15.9 34.5 5.1 8.8 19.9 28.6 24.9 33.4 1.9 1.8 4 3 4.6 2.7 0.8-0.5 1.1-10.3 1.1-31.1 0-34.7 0.6-32.5-9.2-32.5-7.2-0.1-9.3-1.8-9.3-7.6 0-3.9 0.4-4.9 3-6.7 3-2.3 5.5-3.8 9-5.7 1.1-0.6 3.2-1.8 4.7-2.8 1.5-0.9 5.9-3.7 9.8-6.2 3.9-2.5 8.3-5.3 9.8-6.2 1.5-1 3.6-2.2 4.7-2.8 2.4-1.3 4.6-2.7 10.2-6.3 2.4-1.5 4.7-2.7 5.2-2.7 0.5 0 1.1-0.4 1.3-0.8 0.2-0.7 7.3-5.3 17.1-11 1.2-0.7 3.6-2.2 5.2-3.2 1.7-1.1 3.9-2.4 5-3 1.1-0.6 3.4-1.9 5-3 1.7-1.1 3.8-2.3 4.8-2.6 1.6-0.6 1.7-2.9 1.7-29.4 0-27.6 0.1-28.8 2.1-31.4 1.8-2.2 2.8-2.6 7.5-2.6h5.4l-0.2-32.8-0.3-32.7-3.8-0.3c-4.3-0.4-6.7-3.8-6.7-9.5 0-5.8 2.6-7.9 10-8.3 3.8-0.2 6.9-0.9 7.9-1.8 1-0.9 3.4-4.8 5.5-8.8 3.7-7.2 6.2-11.9 14.6-27.3 2.4-4.4 5.6-10.5 7.2-13.5 1.6-3 4.9-9.3 7.4-13.9l4.4-8.3v-14.3c0-7.9-0.3-15-0.6-15.9-0.5-1.3-2.4-1.6-10.5-1.6-9 0-9.9-0.2-11.3-2.2-1.8-2.6-2.1-8-0.6-10.9 1-1.7 2.2-1.9 11.4-1.9 8.6 0 10.5-0.3 11-1.6 0.3-0.9 0.6-5.6 0.6-10.4 0-8 0.2-9 2.2-10.4 2.4-1.7 8.5-2.1 10.7-0.7zm-10.4 144.9c-6.1 2.6-8.8 4.8-11 8.8-1.9 3.5-2 5.6-2 38.3v34.6l17.9 0.3c12.7 0.2 18.2-0.1 18.7-0.9 0.4-0.6 0.6-16.4 0.4-35l-0.3-33.8-2.8-4.3c-2-2.9-4.7-5.2-8.3-7.1-6.3-3.1-7.2-3.2-12.6-0.9zm-7 123.6c-12 3.5-23.3 12.3-28.9 22.5-3.4 6.3-6.6 17.9-6.5 23.6 0 4.3 2.7 15.2 4.9 20 3 6.3 11.7 16.9 15.5 18.6 1.1 0.5 3.5 1.9 5.4 3 5.5 3.3 15 5.9 21.6 5.9 7 0 16.8-2.9 23.9-7 5.3-3 13.8-11 16.1-15.1 11.3-20.2 9-42.5-6.1-58.8-5.5-6-14.4-11.1-22.6-13-5.8-1.4-18-1.2-23.3 0.3zm-107.9 93c-2.9 3.5-3.1 4.3-3.1 11.4 0.1 8.5 2 13 7.3 16.9 6.4 4.8 19.3 4.6 24.6-0.4 5.2-4.8 7.6-9.8 7.6-15.8 0-7.7-4.6-14.7-12.2-18.6-7.8-4-17.9-1.3-24.2 6.5zm204.2 12c0 16.8 18.5 26 31.9 15.9 5.3-4 7.3-8.5 7.3-16.1-0.1-5.6-0.5-7.3-2.8-10.7-1.5-2.2-5-5.2-7.7-6.7-13.4-7.4-28.8 2.1-28.7 17.6zm-83.8 19c-5.6-0.3-7.3 0-12.8 2.7-8.4 4.1-15.8 11.7-20.1 20.4l-3.4 7-0.1 31.2c-0.1 23.8 0.2 31.5 1.2 32.4 1.6 1.7 26.2 3.1 28 1.7 0.9-0.8 1.2-9.5 1.2-37.4v-36.3l2.2-1.5c3.2-2.3 5.4-2 7.7 1 2 2.5 2 3.4 1.4 37.7-0.5 29.6-0.4 35.4 0.8 36.4 2.1 1.7 26.6 0.5 28.5-1.4 1.1-1.2 1.4-6.6 1.4-30.1 0-25.6-0.2-29.4-2-34.9-2.1-6.9-3.3-9.2-7.3-14.5-3.3-4.3-11.6-10.7-16.7-12.7-1.9-0.8-6.4-1.6-10-1.7z"/>
		<path id="Layer" class="s0" d="m266.6 286.5c-1.3 5.2 1.3 9.3 4.9 7.9 1.1-0.4 1.5-2.1 1.5-5.5 0-4.7-0.1-4.9-2.9-4.9-2.2 0-3 0.6-3.5 2.5z"/>
		<path id="Layer" class="s0" d="m245.3 295.1c-3 1.1-2.9 4 0.2 6.9 2 1.9 3 2.2 4.3 1.4 4.3-2.7 0.2-10.1-4.5-8.3z"/>
		<path id="Layer" class="s0" d="m280.9 303.2c-4.6 5.1-10.3 11-12.6 13.2-3.6 3.3-4.3 4.5-4.3 7.7 0 4.2 2.1 6.9 5.3 6.9 2.9-0.1 5-1.8 7.1-5.7 1.3-2.7 11-14.6 16.4-20.2 2.7-2.8 4.2-5.9 3.7-7.3-0.6-1.4-4.6-3.8-6.4-3.8-0.5 0-4.6 4.2-9.2 9.2z"/>
		<path id="Layer" class="s0" d="m231.7 321.7c-0.9 0.9-0.9 6.3 0.1 6.4 7.3 1.1 10.2 0.1 10.2-3.5 0-1.3-0.7-2.7-1.6-3-2.1-0.8-7.9-0.8-8.7 0.1z"/>
		<path id="Layer" class="s0" d="m299.3 321.6c-2.1 0.9-1.6 6.4 0.5 6.5 0.9 0.1 2.9 0.3 4.4 0.4 3.2 0.4 5.1-1.5 4.6-4.7-0.2-1.9-1-2.3-4.3-2.5-2.2-0.1-4.6 0-5.2 0.3z"/>
		<path id="Layer" class="s0" d="m244.6 347.9c-2.4 2.7-1.7 6.5 1.2 6.9 4.4 0.7 7.9-4.7 5-7.6-1.8-1.8-4.2-1.5-6.2 0.7z"/>
		<path id="Layer" class="s0" d="m288.4 347.5c-0.9 2.3 0.3 5.9 2.4 7.2 2.4 1.4 6.2-0.8 6.2-3.6 0-4-7.3-7-8.6-3.6z"/>
		<path id="Layer" class="s0" d="m267.2 356.2c-1.3 1.3-1.5 4-0.6 7.5 0.5 1.7 1.4 2.3 3.6 2.3 2.9 0 2.9 0 2.6-5.3-0.2-4.3-0.6-5.2-2.3-5.5-1.1-0.1-2.6 0.3-3.3 1z"/>
	</g>
</svg>